<svg width="1600" height="1200" viewBox="0 0 1600 1200" fill="none" xmlns="http://www.w3.org/2000/svg" role="img" aria-label="Sertifikat Penghargaan Andri Chris">
  <defs>
    <linearGradient id="gold" x1="0" y1="0" x2="1" y2="1">
      <stop offset="0" stop-color="#F6E3A1" />
      <stop offset="0.5" stop-color="#D9B55B" />
      <stop offset="1" stop-color="#C28C2C" />
    </linearGradient>
    <linearGradient id="navy" x1="0" y1="0" x2="1" y2="1">
      <stop offset="0" stop-color="#021636" />
      <stop offset="1" stop-color="#0A2E6B" />
    </linearGradient>
  </defs>

  <rect width="1600" height="1200" fill="#FAFAFA" />
  <rect x="32" y="32" width="1536" height="1136" rx="32" stroke="url(#gold)" stroke-width="6" />

  <path d="M0 0H360L140 260H0V0Z" fill="url(#navy)" />
  <path d="M1600 0H1240L1460 260H1600V0Z" fill="#F1F1F1" />
  <path d="M1600 1200H1240L1460 940H1600V1200Z" fill="url(#navy)" />
  <path d="M0 1200H360L140 940H0V1200Z" fill="#F1F1F1" />

  <text x="800" y="210" text-anchor="middle" font-family="Poppins, Arial, sans-serif" font-size="64" font-weight="700" fill="#0A2E6B">SERTIFIKAT</text>
  <text x="800" y="270" text-anchor="middle" font-family="Poppins, Arial, sans-serif" font-size="28" letter-spacing="6" font-weight="600" fill="#5E5E5E">PENGHARGAAN</text>

  <text x="800" y="365" text-anchor="middle" font-family="Poppins, Arial, sans-serif" font-size="24" fill="#3B3B3B">SERTIFIKAT INI DIPERSEMBAHKAN KEPADA</text>

  <text x="800" y="470" text-anchor="middle" font-family="Pacifico, 'Segoe Script', cursive" font-size="86" fill="#0A2E6B">Andri Chris</text>
  <line x1="450" y1="510" x2="1150" y2="510" stroke="#CFA84C" stroke-width="4" />

  <text x="800" y="580" text-anchor="middle" font-family="Poppins, Arial, sans-serif" font-size="24" fill="#4B4B4B">
    Untuk menyelesaikan pelatihan Desain Grafis yang diselenggarakan
  </text>
  <text x="800" y="620" text-anchor="middle" font-family="Poppins, Arial, sans-serif" font-size="24" fill="#4B4B4B">
    oleh PT. Mencari Cinta Sejati pada 28 Agustus 2000
  </text>

  <circle cx="800" cy="760" r="70" fill="url(#gold)" />
  <circle cx="800" cy="760" r="48" fill="#EBCB77" />

  <text x="430" y="820" text-anchor="middle" font-family="Pacifico, 'Segoe Script', cursive" font-size="42" fill="#1F1F1F">Bailey</text>
  <line x1="300" y1="845" x2="560" y2="845" stroke="#CFA84C" stroke-width="3" />
  <text x="430" y="885" text-anchor="middle" font-family="Poppins, Arial, sans-serif" font-size="20" font-weight="600" fill="#2E2E2E">Bailey Dupont</text>
  <text x="430" y="915" text-anchor="middle" font-family="Poppins, Arial, sans-serif" font-size="18" fill="#4B4B4B">Penanggung Jawab</text>

  <text x="1170" y="820" text-anchor="middle" font-family="Pacifico, 'Segoe Script', cursive" font-size="42" fill="#1F1F1F">Brigitte</text>
  <line x1="1040" y1="845" x2="1300" y2="845" stroke="#CFA84C" stroke-width="3" />
  <text x="1170" y="885" text-anchor="middle" font-family="Poppins, Arial, sans-serif" font-size="20" font-weight="600" fill="#2E2E2E">Brigitte Schwartz</text>
  <text x="1170" y="915" text-anchor="middle" font-family="Poppins, Arial, sans-serif" font-size="18" fill="#4B4B4B">Penanggung Jawab</text>
</svg>
